<?xml version="1.0" standalone="no"?>
        <!DOCTYPE svg PUBLIC "-//W3C//DTD SVG 1.1//EN" 
        "http://www.w3.org/Graphics/SVG/1.1/DTD/svg11.dtd"><svg id="changeColor" fill="#DC7633" xmlns="http://www.w3.org/2000/svg" xmlns:xlink="http://www.w3.org/1999/xlink" width="80" zoomAndPan="magnify" viewBox="0 0 375 374.9999" height="80" preserveAspectRatio="xMidYMid meet" version="1.0"><defs><path id="pathAttribute" d="M 7.09375 7.09375 L 367.84375 7.09375 L 367.84375 367.84375 L 7.09375 367.84375 Z M 7.09375 7.09375 " fill="#00ffbd"></path></defs><g><path id="pathAttribute" d="M 187.46875 7.09375 C 87.851562 7.09375 7.09375 87.851562 7.09375 187.46875 C 7.09375 287.085938 87.851562 367.84375 187.46875 367.84375 C 287.085938 367.84375 367.84375 287.085938 367.84375 187.46875 C 367.84375 87.851562 287.085938 7.09375 187.46875 7.09375 " fill-opacity="1" fill-rule="nonzero" fill="#00ffbd"></path></g><g id="inner-icon" transform="translate(85, 75)"> <svg width="199.8" height="199.8" viewBox="0 0 24 24" fill="none" xmlns="http://www.w3.org/2000/svg" id="IconChangeColor"> <path d="M4 5C3.44772 5 3 5.44772 3 6C3 6.55228 3.44772 7 4 7H20C20.5523 7 21 6.55228 21 6C21 5.44772 20.5523 5 20 5H4Z" fill="currentColor" id="mainIconPathAttribute"></path> <path d="M4 13C3.44772 13 3 13.4477 3 14C3 14.5523 3.44772 15 4 15H20C20.5523 15 21 14.5523 21 14C21 13.4477 20.5523 13 20 13H4Z" fill="currentColor" id="mainIconPathAttribute"></path> <path d="M6 10C6 9.44772 6.44772 9 7 9H17C17.5523 9 18 9.44772 18 10C18 10.5523 17.5523 11 17 11H7C6.44772 11 6 10.5523 6 10Z" fill="currentColor" id="mainIconPathAttribute"></path> <path d="M7 17C6.44772 17 6 17.4477 6 18C6 18.5523 6.44772 19 7 19H17C17.5523 19 18 18.5523 18 18C18 17.4477 17.5523 17 17 17H7Z" fill="currentColor" id="mainIconPathAttribute"></path> </svg> </g></svg>