<?xml version="1.0" standalone="no"?>
        <!DOCTYPE svg PUBLIC "-//W3C//DTD SVG 1.1//EN" 
        "http://www.w3.org/Graphics/SVG/1.1/DTD/svg11.dtd"><svg id="changeColor" fill="#DC7633" xmlns="http://www.w3.org/2000/svg" xmlns:xlink="http://www.w3.org/1999/xlink" width="80" zoomAndPan="magnify" viewBox="0 0 375 374.9999" height="80" preserveAspectRatio="xMidYMid meet" version="1.0"><defs><path id="pathAttribute" d="M 7.09375 7.09375 L 367.84375 7.09375 L 367.84375 367.84375 L 7.09375 367.84375 Z M 7.09375 7.09375 " fill="#00ffbd"></path></defs><g><path id="pathAttribute" d="M 187.46875 7.09375 C 87.851562 7.09375 7.09375 87.851562 7.09375 187.46875 C 7.09375 287.085938 87.851562 367.84375 187.46875 367.84375 C 287.085938 367.84375 367.84375 287.085938 367.84375 187.46875 C 367.84375 87.851562 287.085938 7.09375 187.46875 7.09375 " fill-opacity="1" fill-rule="nonzero" fill="#00ffbd"></path></g><g id="inner-icon" transform="translate(85, 75)"> <svg xmlns="http://www.w3.org/2000/svg" width="199.8" height="199.8" fill="currentColor" class="bi bi-gpu-card" viewBox="0 0 16 16" id="IconChangeColor"> <path d="M4 8a1.5 1.5 0 1 1 3 0 1.5 1.5 0 0 1-3 0Zm7.5-1.5a1.5 1.5 0 1 0 0 3 1.5 1.5 0 0 0 0-3Z" id="mainIconPathAttribute"></path> <path d="M0 1.5A.5.5 0 0 1 .5 1h1a.5.5 0 0 1 .5.5V4h13.5a.5.5 0 0 1 .5.5v7a.5.5 0 0 1-.5.5H2v2.5a.5.5 0 0 1-1 0V2H.5a.5.5 0 0 1-.5-.5Zm5.5 4a2.5 2.5 0 1 0 0 5 2.5 2.5 0 0 0 0-5ZM9 8a2.5 2.5 0 1 0 5 0 2.5 2.5 0 0 0-5 0Z" id="mainIconPathAttribute"></path> <path d="M3 12.5h3.5v1a.5.5 0 0 1-.5.5H3.5a.5.5 0 0 1-.5-.5v-1Zm4 1v-1h4v1a.5.5 0 0 1-.5.5h-3a.5.5 0 0 1-.5-.5Z" id="mainIconPathAttribute"></path> </svg> </g></svg>