<?xml version="1.0" standalone="no"?>
        <!DOCTYPE svg PUBLIC "-//W3C//DTD SVG 1.1//EN" 
        "http://www.w3.org/Graphics/SVG/1.1/DTD/svg11.dtd"><svg id="changeColor" fill="#DC7633" xmlns="http://www.w3.org/2000/svg" xmlns:xlink="http://www.w3.org/1999/xlink" width="81" zoomAndPan="magnify" viewBox="0 0 375 374.9999" height="81" preserveAspectRatio="xMidYMid meet" version="1.0"><defs><path id="pathAttribute" d="M 7.09375 7.09375 L 367.84375 7.09375 L 367.84375 367.84375 L 7.09375 367.84375 Z M 7.09375 7.09375 " fill="#00ffbd"></path></defs><g><path id="pathAttribute" d="M 187.46875 7.09375 C 87.851562 7.09375 7.09375 87.851562 7.09375 187.46875 C 7.09375 287.085938 87.851562 367.84375 187.46875 367.84375 C 287.085938 367.84375 367.84375 287.085938 367.84375 187.46875 C 367.84375 87.851562 287.085938 7.09375 187.46875 7.09375 " fill-opacity="1" fill-rule="nonzero" fill="#00ffbd"></path></g><g id="inner-icon" transform="translate(85, 75)"> <svg xmlns="http://www.w3.org/2000/svg" width="199.8" height="199.8" fill="currentColor" class="bi bi-list-stars" viewBox="0 0 16 16" id="IconChangeColor"> <path fill-rule="evenodd" d="M5 11.5a.5.5 0 0 1 .5-.5h9a.5.5 0 0 1 0 1h-9a.5.5 0 0 1-.5-.5zm0-4a.5.5 0 0 1 .5-.5h9a.5.5 0 0 1 0 1h-9a.5.5 0 0 1-.5-.5zm0-4a.5.5 0 0 1 .5-.5h9a.5.5 0 0 1 0 1h-9a.5.5 0 0 1-.5-.5z" id="mainIconPathAttribute"></path> <path d="M2.242 2.194a.27.27 0 0 1 .516 0l.162.53c.035.115.14.194.258.194h.551c.259 0 .37.333.164.493l-.468.363a.277.277 0 0 0-.094.3l.173.569c.078.256-.213.462-.423.3l-.417-.324a.267.267 0 0 0-.328 0l-.417.323c-.21.163-.5-.043-.423-.299l.173-.57a.277.277 0 0 0-.094-.299l-.468-.363c-.206-.16-.095-.493.164-.493h.55a.271.271 0 0 0 .259-.194l.162-.53zm0 4a.27.27 0 0 1 .516 0l.162.53c.035.115.14.194.258.194h.551c.259 0 .37.333.164.493l-.468.363a.277.277 0 0 0-.094.3l.173.569c.078.255-.213.462-.423.3l-.417-.324a.267.267 0 0 0-.328 0l-.417.323c-.21.163-.5-.043-.423-.299l.173-.57a.277.277 0 0 0-.094-.299l-.468-.363c-.206-.16-.095-.493.164-.493h.55a.271.271 0 0 0 .259-.194l.162-.53zm0 4a.27.27 0 0 1 .516 0l.162.53c.035.115.14.194.258.194h.551c.259 0 .37.333.164.493l-.468.363a.277.277 0 0 0-.094.3l.173.569c.078.255-.213.462-.423.3l-.417-.324a.267.267 0 0 0-.328 0l-.417.323c-.21.163-.5-.043-.423-.299l.173-.57a.277.277 0 0 0-.094-.299l-.468-.363c-.206-.16-.095-.493.164-.493h.55a.271.271 0 0 0 .259-.194l.162-.53z" id="mainIconPathAttribute"></path> </svg> </g></svg>