<?xml version="1.0" standalone="no"?>
        <!DOCTYPE svg PUBLIC "-//W3C//DTD SVG 1.1//EN" 
        "http://www.w3.org/Graphics/SVG/1.1/DTD/svg11.dtd"><svg id="changeColor" fill="#DC7633" xmlns="http://www.w3.org/2000/svg" xmlns:xlink="http://www.w3.org/1999/xlink" width="81" zoomAndPan="magnify" viewBox="0 0 375 374.9999" height="81" preserveAspectRatio="xMidYMid meet" version="1.0"><defs><path id="pathAttribute" d="M 7.09375 7.09375 L 367.84375 7.09375 L 367.84375 367.84375 L 7.09375 367.84375 Z M 7.09375 7.09375 " fill="#00ffbd"></path></defs><g><path id="pathAttribute" d="M 187.46875 7.09375 C 87.851562 7.09375 7.09375 87.851562 7.09375 187.46875 C 7.09375 287.085938 87.851562 367.84375 187.46875 367.84375 C 287.085938 367.84375 367.84375 287.085938 367.84375 187.46875 C 367.84375 87.851562 287.085938 7.09375 187.46875 7.09375 " fill-opacity="1" fill-rule="nonzero" fill="#00ffbd"></path></g><g id="inner-icon" transform="translate(85, 75)"> <svg xmlns="http://www.w3.org/2000/svg" width="199.8" height="199.8" fill="currentColor" class="bi bi-textarea-t" viewBox="0 0 16 16" id="IconChangeColor"> <path d="M1.5 2.5A1.5 1.5 0 0 1 3 1h10a1.5 1.5 0 0 1 1.5 1.5v3.563a2 2 0 0 1 0 3.874V13.5A1.5 1.5 0 0 1 13 15H3a1.5 1.5 0 0 1-1.5-1.5V9.937a2 2 0 0 1 0-3.874V2.5zm1 3.563a2 2 0 0 1 0 3.874V13.5a.5.5 0 0 0 .5.5h10a.5.5 0 0 0 .5-.5V9.937a2 2 0 0 1 0-3.874V2.5A.5.5 0 0 0 13 2H3a.5.5 0 0 0-.5.5v3.563zM2 7a1 1 0 1 0 0 2 1 1 0 0 0 0-2zm12 0a1 1 0 1 0 0 2 1 1 0 0 0 0-2z" id="mainIconPathAttribute"></path> <path d="M11.434 4H4.566L4.5 5.994h.386c.21-1.252.612-1.446 2.173-1.495l.343-.011v6.343c0 .537-.116.665-1.049.748V12h3.294v-.421c-.938-.083-1.054-.21-1.054-.748V4.488l.348.01c1.56.05 1.963.244 2.173 1.496h.386L11.434 4z" id="mainIconPathAttribute"></path> </svg> </g></svg>